<svg xmlns="http://www.w3.org/2000/svg" viewBox="0 0 960 960" role="img" aria-label="DBLP">
  <circle cx="480" cy="480" r="480" fill="#0b66c3"/>
  <path d="M244 648V320h95c46 0 82 14 109 43s40 70 40 123c0 50-14 90-41 119s-65 43-114 43zm73-59h29c23 0 41-8 53-25s18-42 18-76c0-36-6-63-18-80s-30-26-54-26h-28z" fill="#fff"/>
  <path d="M521 648V300h72v121c16-20 38-30 66-30 35 0 62 14 82 42s30 65 30 111c0 47-10 84-30 111s-48 41-83 41c-30 0-54-12-72-35l-8 29h-57zm72-94c0 24 6 43 18 58s27 22 47 22c19 0 34-8 45-24s17-38 17-67c0-28-6-50-17-66s-26-24-45-24c-20 0-36 8-47 23s-18 35-18 60z" fill="#fff"/>
  <path d="M195 704h610v44H195zm0-492h610v44H195z" fill="#9ed1ff"/>
</svg>
